# xmcd
#
# Track frame offsets:
#	150
#	16843
#	29679
#	49253
#	84284
#	97894
#	117601
#	149641
#	178233
#	190833
#	206489
#	221312
#	234075
#	249030
#	269914
#
# Disc length: 3847 seconds
#
# Revision: 1
# Processed by: cddbd v1.5.1PL2 Copyright (c) Steve Scherf et al.
# Submitted via: audiograbber 1.83.01
#
DISCID=d20f050f
DTITLE=ALMIR ROUCHE - SÃO JOÃO NA ROÇA
DYEAR=1900
DGENRE=
TTITLE0=ACOCHADO TODO
TTITLE1=BARRA DO COQUEIRO-AMOR TENHO PARA LHE DAR
TTITLE2=DIAS DOS NAMORADOS
TTITLE3=BAIÃO DA GAROA-CAVALEIRO ALADO
TTITLE4=CAVALEIRO DA NOITE
TTITLE5=GIBÃO DE COURO-DONA TEREZA
TTITLE6=SÃO JOÃO NORDESTINO-É MADRUGADA
TTITLE7=CHILILIQUI-FORRÓ PESADO
TTITLE8=QUEIMEI SEU TRAVESSEIRO
TTITLE9=NÃO SOU CULPADO
TTITLE10=SAUDADE BAIANA
TTITLE11=ANJO MALANDRINHO
TTITLE12=CARREGADO DE AMOR
TTITLE13=APANHADEIRA DE CAFÉ-ADEUS MEU AMOR-TREPA NO COQUEIRO
TTITLE14=FORRÓ DIFERENTE
EXTD=
EXTT0=
EXTT1=
EXTT2=
EXTT3=
EXTT4=
EXTT5=
EXTT6=
EXTT7=
EXTT8=
EXTT9=
EXTT10=
EXTT11=
EXTT12=
EXTT13=
EXTT14=
PLAYORDER=
